<svg width="32" height="32" viewBox="0 0 32 32" fill="none" xmlns="http://www.w3.org/2000/svg">
<rect width="32" height="32" rx="8" fill="#F7F8FD"/>
<path d="M16.0001 17.3334C16.7365 17.3334 17.3334 16.7365 17.3334 16.0001C17.3334 15.2637 16.7365 14.6667 16.0001 14.6667C15.2637 14.6667 14.6667 15.2637 14.6667 16.0001C14.6667 16.7365 15.2637 17.3334 16.0001 17.3334Z" fill="#3C4348"/>
<path d="M20.6666 17.3334C21.403 17.3334 21.9999 16.7365 21.9999 16.0001C21.9999 15.2637 21.403 14.6667 20.6666 14.6667C19.9302 14.6667 19.3333 15.2637 19.3333 16.0001C19.3333 16.7365 19.9302 17.3334 20.6666 17.3334Z" fill="#3C4348"/>
<path d="M11.3333 17.3334C12.0697 17.3334 12.6667 16.7365 12.6667 16.0001C12.6667 15.2637 12.0697 14.6667 11.3333 14.6667C10.597 14.6667 10 15.2637 10 16.0001C10 16.7365 10.597 17.3334 11.3333 17.3334Z" fill="#3C4348"/>
</svg>
