<svg width="16" height="16" viewBox="0 0 16 16" fill="none" xmlns="http://www.w3.org/2000/svg">
<path d="M12 2H4C3.46957 2 2.96086 2.21071 2.58579 2.58579C2.21071 2.96086 2 3.46957 2 4V12C2 12.5304 2.21071 13.0391 2.58579 13.4142C2.96086 13.7893 3.46957 14 4 14H12C12.5304 14 13.0391 13.7893 13.4142 13.4142C13.7893 13.0391 14 12.5304 14 12V4C14 3.46957 13.7893 2.96086 13.4142 2.58579C13.0391 2.21071 12.5304 2 12 2ZM4 3.33333H12C12.1768 3.33333 12.3464 3.40357 12.4714 3.5286C12.5964 3.65362 12.6667 3.82319 12.6667 4V9.57333L10.5333 7.75333C10.2028 7.48136 9.78805 7.33266 9.36 7.33266C8.93195 7.33266 8.5172 7.48136 8.18667 7.75333L3.33333 11.8V4C3.33333 3.82319 3.40357 3.65362 3.5286 3.5286C3.65362 3.40357 3.82319 3.33333 4 3.33333ZM12 12.6667H4.37333L9.04 8.77333C9.12965 8.70677 9.23834 8.67083 9.35 8.67083C9.46166 8.67083 9.57035 8.70677 9.66 8.77333L12.6667 11.3333V12C12.6667 12.1768 12.5964 12.3464 12.4714 12.4714C12.3464 12.5964 12.1768 12.6667 12 12.6667Z" fill="#808191"/>
<path d="M5.33337 6.66675C5.88566 6.66675 6.33337 6.21903 6.33337 5.66675C6.33337 5.11446 5.88566 4.66675 5.33337 4.66675C4.78109 4.66675 4.33337 5.11446 4.33337 5.66675C4.33337 6.21903 4.78109 6.66675 5.33337 6.66675Z" fill="#808191"/>
</svg>
