<svg width="20" height="20" viewBox="0 0 20 20" fill="none" xmlns="http://www.w3.org/2000/svg">
<g clip-path="url(#clip0)">
<path d="M13.4167 2.49992C13.305 3.04986 13.305 3.61665 13.4167 4.16659H3.75919L10.0509 9.71825L14.2584 5.95159C14.6134 6.39075 15.0567 6.75659 15.5609 7.02242L10.06 11.9483L3.33335 6.01325V15.8333H16.6667V7.41658C17.2166 7.52831 17.7834 7.52831 18.3334 7.41658V16.6666C18.3334 16.8876 18.2456 17.0996 18.0893 17.2558C17.933 17.4121 17.721 17.4999 17.5 17.4999H2.50002C2.27901 17.4999 2.06704 17.4121 1.91076 17.2558C1.75448 17.0996 1.66669 16.8876 1.66669 16.6666V3.33325C1.66669 3.11224 1.75448 2.90028 1.91076 2.744C2.06704 2.58772 2.27901 2.49992 2.50002 2.49992H13.4167ZM17.5 5.83325C17.1717 5.83325 16.8466 5.76859 16.5433 5.64295C16.24 5.51731 15.9644 5.33317 15.7323 5.10102C15.5001 4.86887 15.316 4.59327 15.1903 4.28996C15.0647 3.98665 15 3.66156 15 3.33325C15 3.00495 15.0647 2.67986 15.1903 2.37654C15.316 2.07323 15.5001 1.79763 15.7323 1.56548C15.9644 1.33334 16.24 1.14919 16.5433 1.02355C16.8466 0.897916 17.1717 0.833252 17.5 0.833252C18.1631 0.833252 18.7989 1.09664 19.2678 1.56548C19.7366 2.03433 20 2.67021 20 3.33325C20 3.99629 19.7366 4.63218 19.2678 5.10102C18.7989 5.56986 18.1631 5.83325 17.5 5.83325Z" fill="#808191"/>
</g>
<defs>
<clipPath id="clip0">
<rect width="20" height="20" fill="white"/>
</clipPath>
</defs>
</svg>
