<svg width="16" height="16" viewBox="0 0 16 16" fill="none" xmlns="http://www.w3.org/2000/svg">
<path d="M8.00004 9.99992C8.70728 9.99992 9.38556 9.71897 9.88566 9.21887C10.3858 8.71877 10.6667 8.0405 10.6667 7.33325V3.99992C10.6667 3.29267 10.3858 2.6144 9.88566 2.1143C9.38556 1.6142 8.70728 1.33325 8.00004 1.33325C7.2928 1.33325 6.61452 1.6142 6.11442 2.1143C5.61433 2.6144 5.33337 3.29267 5.33337 3.99992V7.33325C5.33337 8.0405 5.61433 8.71877 6.11442 9.21887C6.61452 9.71897 7.2928 9.99992 8.00004 9.99992ZM6.66671 3.99992C6.66671 3.6463 6.80718 3.30716 7.05723 3.05711C7.30728 2.80706 7.64642 2.66659 8.00004 2.66659C8.35366 2.66659 8.6928 2.80706 8.94285 3.05711C9.1929 3.30716 9.33337 3.6463 9.33337 3.99992V7.33325C9.33337 7.68687 9.1929 8.02601 8.94285 8.27606C8.6928 8.52611 8.35366 8.66659 8.00004 8.66659C7.64642 8.66659 7.30728 8.52611 7.05723 8.27606C6.80718 8.02601 6.66671 7.68687 6.66671 7.33325V3.99992Z" fill="#808191"/>
<path d="M12.6667 7.33317C12.6667 7.15636 12.5965 6.98679 12.4714 6.86177C12.3464 6.73674 12.1769 6.6665 12 6.6665C11.8232 6.6665 11.6537 6.73674 11.5286 6.86177C11.4036 6.98679 11.3334 7.15636 11.3334 7.33317C11.3334 8.21723 10.9822 9.06507 10.3571 9.69019C9.73194 10.3153 8.8841 10.6665 8.00004 10.6665C7.11599 10.6665 6.26814 10.3153 5.64302 9.69019C5.0179 9.06507 4.66671 8.21723 4.66671 7.33317C4.66671 7.15636 4.59647 6.98679 4.47145 6.86177C4.34642 6.73674 4.17685 6.6665 4.00004 6.6665C3.82323 6.6665 3.65366 6.73674 3.52864 6.86177C3.40361 6.98679 3.33337 7.15636 3.33337 7.33317C3.33469 8.4544 3.73965 9.53768 4.47416 10.3848C5.20868 11.232 6.22364 11.7863 7.33337 11.9465V13.3332H5.92671C5.76935 13.3332 5.61843 13.3957 5.50716 13.507C5.39589 13.6182 5.33337 13.7691 5.33337 13.9265V14.0732C5.33337 14.2305 5.39589 14.3814 5.50716 14.4927C5.61843 14.604 5.76935 14.6665 5.92671 14.6665H10.0734C10.2307 14.6665 10.3817 14.604 10.4929 14.4927C10.6042 14.3814 10.6667 14.2305 10.6667 14.0732V13.9265C10.6667 13.7691 10.6042 13.6182 10.4929 13.507C10.3817 13.3957 10.2307 13.3332 10.0734 13.3332H8.66671V11.9465C9.77644 11.7863 10.7914 11.232 11.5259 10.3848C12.2604 9.53768 12.6654 8.4544 12.6667 7.33317Z" fill="#808191"/>
</svg>
