<svg width="32" height="27" viewBox="0 0 32 27" fill="none" xmlns="http://www.w3.org/2000/svg">
<path d="M7.92377 22.979V21.6691C7.93139 21.559 7.91549 21.4485 7.87712 21.345C7.83874 21.2414 7.77878 21.1473 7.70123 21.0688C7.62368 20.9903 7.53032 20.9293 7.42736 20.8897C7.32441 20.8502 7.21422 20.8331 7.10415 20.8396C6.96008 20.8301 6.81611 20.8596 6.68727 20.9249C6.55844 20.9901 6.44947 21.0889 6.37173 21.2107C6.30087 21.0925 6.19948 20.9957 6.07825 20.9303C5.95702 20.865 5.82043 20.8337 5.6829 20.8396C5.56301 20.8335 5.44362 20.8589 5.33656 20.9133C5.2295 20.9677 5.13849 21.0491 5.07255 21.1496V20.892H4.61914V22.979H5.07691V21.8307C5.06717 21.7593 5.0733 21.6867 5.09485 21.618C5.1164 21.5492 5.15284 21.4861 5.20158 21.4332C5.25031 21.3802 5.31013 21.3386 5.37675 21.3115C5.44338 21.2844 5.51517 21.2723 5.58699 21.2762C5.8878 21.2762 6.04039 21.4727 6.04039 21.8263V22.9877H6.49816V21.8307C6.48882 21.7594 6.49523 21.6869 6.51692 21.6184C6.53862 21.5498 6.57509 21.4869 6.62374 21.434C6.67239 21.3811 6.73204 21.3396 6.79848 21.3123C6.86492 21.285 6.93652 21.2727 7.00824 21.2762C7.31778 21.2762 7.46601 21.4727 7.46601 21.8263V22.9877L7.92377 22.979ZM14.6965 20.892H13.951V20.2589H13.4933V20.892H13.0791V21.3068H13.502V22.2673C13.502 22.7519 13.6894 23.0401 14.2257 23.0401C14.426 23.0408 14.6225 22.9848 14.7924 22.8785L14.6616 22.49C14.5401 22.5626 14.4021 22.6031 14.2606 22.6078C14.0426 22.6078 13.9597 22.4681 13.9597 22.2586V21.3068H14.7009L14.6965 20.892ZM18.5636 20.8396C18.453 20.8363 18.3436 20.863 18.247 20.9168C18.1503 20.9706 18.0699 21.0495 18.0142 21.1452V20.892H17.5652V22.979H18.0186V21.8089C18.0186 21.4639 18.1668 21.2718 18.4546 21.2718C18.5515 21.2705 18.6478 21.2883 18.7379 21.3242L18.8774 20.8876C18.7739 20.8505 18.6648 20.8313 18.5548 20.8309L18.5636 20.8396ZM12.7172 21.0579C12.4606 20.9051 12.1655 20.8293 11.8671 20.8396C11.3396 20.8396 10.9952 21.0928 10.9952 21.5076C10.9952 21.8481 11.248 22.0577 11.7145 22.1232L11.9325 22.1538C12.181 22.1887 12.2987 22.2542 12.2987 22.3721C12.2987 22.5336 12.133 22.6253 11.8235 22.6253C11.5745 22.6325 11.3304 22.5556 11.1303 22.407L10.9123 22.7607C11.1764 22.9453 11.4928 23.0402 11.8148 23.0313C12.4164 23.0313 12.7652 22.7476 12.7652 22.3502C12.7652 21.9529 12.4905 21.7914 12.0371 21.7259L11.8191 21.6953C11.623 21.6691 11.466 21.6298 11.466 21.4901C11.466 21.3504 11.6142 21.2456 11.8627 21.2456C12.0924 21.2483 12.3176 21.3099 12.5167 21.4246L12.7172 21.0579ZM24.8611 20.8396C24.7506 20.8363 24.6412 20.863 24.5445 20.9168C24.4478 20.9706 24.3674 21.0495 24.3118 21.1452V20.892H23.8627V22.979H24.3161V21.8089C24.3161 21.4639 24.4644 21.2718 24.7521 21.2718C24.8491 21.2705 24.9454 21.2883 25.0355 21.3242L25.175 20.8876C25.0714 20.8505 24.9624 20.8313 24.8524 20.8309L24.8611 20.8396ZM19.0191 21.9311C19.0137 22.0778 19.039 22.2239 19.0932 22.3603C19.1475 22.4966 19.2296 22.6201 19.3342 22.7228C19.4389 22.8256 19.5638 22.9053 19.7009 22.9569C19.8381 23.0085 19.9845 23.0309 20.1309 23.0226C20.4031 23.0365 20.6706 22.9477 20.8807 22.7737L20.6627 22.407C20.506 22.5267 20.3149 22.5925 20.1178 22.5947C19.9502 22.5812 19.7938 22.5049 19.6798 22.3811C19.5658 22.2573 19.5025 22.0951 19.5025 21.9267C19.5025 21.7584 19.5658 21.5961 19.6798 21.4724C19.7938 21.3486 19.9502 21.2723 20.1178 21.2587C20.3149 21.2609 20.506 21.3268 20.6627 21.4465L20.8807 21.0797C20.6706 20.9058 20.4031 20.817 20.1309 20.8309C19.9845 20.8226 19.8381 20.8449 19.7009 20.8966C19.5638 20.9482 19.4389 21.0279 19.3342 21.1307C19.2296 21.2334 19.1475 21.3569 19.0932 21.4932C19.039 21.6295 19.0137 21.7757 19.0191 21.9224V21.9311ZM23.2655 21.9311V20.892H22.8121V21.1452C22.7351 21.046 22.6356 20.9665 22.5219 20.9134C22.4082 20.8603 22.2835 20.835 22.1581 20.8396C21.869 20.8396 21.5918 20.9546 21.3874 21.1593C21.183 21.364 21.0682 21.6416 21.0682 21.9311C21.0682 22.2206 21.183 22.4982 21.3874 22.7029C21.5918 22.9076 21.869 23.0226 22.1581 23.0226C22.2835 23.0272 22.4082 23.0019 22.5219 22.9488C22.6356 22.8957 22.7351 22.8162 22.8121 22.717V22.9702H23.2655V21.9311ZM21.5783 21.9311C21.5855 21.8083 21.6284 21.6902 21.7018 21.5915C21.7752 21.4928 21.8758 21.4177 21.9912 21.3755C22.1067 21.3334 22.2319 21.3259 22.3515 21.3541C22.4711 21.3823 22.5799 21.4449 22.6644 21.5342C22.7489 21.6236 22.8055 21.7357 22.8272 21.8568C22.8489 21.9779 22.8348 22.1028 22.7865 22.216C22.7383 22.3291 22.658 22.4257 22.5557 22.4938C22.4533 22.5619 22.3333 22.5985 22.2104 22.5991C22.1241 22.6002 22.0385 22.5834 21.959 22.5498C21.8795 22.5161 21.8078 22.4663 21.7484 22.4036C21.689 22.3409 21.6433 22.2665 21.614 22.1852C21.5847 22.1039 21.5725 22.0174 21.5783 21.9311ZM16.1069 20.8396C15.8178 20.8436 15.5422 20.9625 15.3407 21.1701C15.1391 21.3777 15.0282 21.6569 15.0322 21.9464C15.0363 22.2359 15.155 22.5119 15.3622 22.7137C15.5695 22.9156 15.8483 23.0267 16.1374 23.0226C16.451 23.0387 16.7594 22.9376 17.0028 22.7388L16.7848 22.4026C16.6127 22.5409 16.3994 22.6177 16.1788 22.6209C16.0289 22.6338 15.8799 22.5877 15.7635 22.4923C15.6471 22.3969 15.5724 22.2598 15.5554 22.1101H17.1031C17.1031 22.0534 17.1031 21.9966 17.1031 21.9355C17.1031 21.2806 16.6976 20.844 16.1134 20.844L16.1069 20.8396ZM16.1069 21.2456C16.1747 21.2442 16.2422 21.2561 16.3054 21.2808C16.3687 21.3055 16.4264 21.3424 16.4754 21.3894C16.5244 21.4365 16.5637 21.4927 16.5909 21.5549C16.6182 21.6171 16.633 21.6842 16.6344 21.7521H15.5445C15.5524 21.612 15.6147 21.4805 15.7182 21.3858C15.8217 21.2912 15.9581 21.2409 16.0982 21.2456H16.1069ZM27.466 21.9355V20.0537H27.03V21.1452C26.953 21.046 26.8536 20.9665 26.7399 20.9134C26.6262 20.8603 26.5015 20.835 26.3761 20.8396C26.087 20.8396 25.8098 20.9546 25.6054 21.1593C25.401 21.364 25.2862 21.6416 25.2862 21.9311C25.2862 22.2206 25.401 22.4982 25.6054 22.7029C25.8098 22.9076 26.087 23.0226 26.3761 23.0226C26.5015 23.0272 26.6262 23.0019 26.7399 22.9488C26.8536 22.8957 26.953 22.8162 27.03 22.717V22.9702H27.466V21.9355ZM28.2224 22.6755C28.2507 22.6752 28.2789 22.6804 28.3052 22.6908C28.3303 22.701 28.3532 22.7158 28.3728 22.7345C28.392 22.7533 28.4075 22.7755 28.4186 22.7999C28.4296 22.8254 28.4353 22.8529 28.4353 22.8807C28.4353 22.9085 28.4296 22.936 28.4186 22.9615C28.4075 22.986 28.392 23.0082 28.3728 23.027C28.3532 23.0456 28.3303 23.0604 28.3052 23.0706C28.2791 23.0822 28.2509 23.0881 28.2224 23.0881C28.1811 23.0878 28.1407 23.0757 28.106 23.0533C28.0712 23.0309 28.0436 22.999 28.0262 22.9615C28.0153 22.936 28.0097 22.9085 28.0097 22.8807C28.0097 22.8529 28.0153 22.8255 28.0262 22.7999C28.0373 22.7755 28.0528 22.7533 28.072 22.7345C28.0916 22.7158 28.1145 22.701 28.1396 22.6908C28.168 22.6795 28.1984 22.6743 28.2289 22.6755H28.2224ZM28.2224 23.0444C28.2442 23.0446 28.2657 23.0401 28.2856 23.0313C28.3044 23.023 28.3214 23.0111 28.3358 22.9964C28.363 22.9666 28.3782 22.9277 28.3782 22.8873C28.3782 22.8469 28.363 22.8079 28.3358 22.7781C28.3214 22.7634 28.3044 22.7515 28.2856 22.7432C28.2657 22.7345 28.2442 22.73 28.2224 22.7301C28.2007 22.7302 28.1792 22.7347 28.1592 22.7432C28.1396 22.7512 28.1218 22.7631 28.1069 22.7781C28.0796 22.8079 28.0645 22.8469 28.0645 22.8873C28.0645 22.9277 28.0796 22.9666 28.1069 22.9964C28.1219 23.0114 28.1396 23.0233 28.1592 23.0313C28.1812 23.0408 28.205 23.0453 28.2289 23.0444H28.2224ZM28.2355 22.7847C28.2558 22.7837 28.2759 22.7899 28.2922 22.8021C28.2988 22.8077 28.3041 22.8147 28.3075 22.8227C28.3109 22.8306 28.3124 22.8393 28.3118 22.848C28.3121 22.8552 28.3109 22.8625 28.3083 22.8692C28.3056 22.876 28.3016 22.8821 28.2965 22.8873C28.2839 22.8988 28.2678 22.9057 28.2507 22.9069L28.314 22.979H28.2638L28.205 22.9069H28.1854V22.979H28.1439V22.7868L28.2355 22.7847ZM28.1875 22.8218V22.8742H28.2355C28.244 22.8767 28.2531 22.8767 28.2616 22.8742C28.2632 22.8711 28.264 22.8678 28.264 22.8643C28.264 22.8609 28.2632 22.8576 28.2616 22.8545C28.2632 22.8515 28.264 22.8481 28.264 22.8447C28.264 22.8413 28.2632 22.8379 28.2616 22.8349C28.2531 22.8323 28.244 22.8323 28.2355 22.8349L28.1875 22.8218ZM25.7897 21.9355C25.7969 21.8126 25.8399 21.6946 25.9133 21.5959C25.9866 21.4972 26.0872 21.4221 26.2027 21.3799C26.3181 21.3377 26.4433 21.3303 26.5629 21.3585C26.6826 21.3867 26.7913 21.4493 26.8758 21.5386C26.9604 21.6279 27.017 21.7401 27.0387 21.8612C27.0604 21.9823 27.0462 22.1071 26.998 22.2203C26.9497 22.3335 26.8695 22.4301 26.7671 22.4981C26.6647 22.5662 26.5447 22.6028 26.4219 22.6035C26.3356 22.6046 26.25 22.5878 26.1704 22.5541C26.0909 22.5205 26.0192 22.4707 25.9599 22.408C25.9005 22.3452 25.8547 22.2709 25.8254 22.1895C25.7962 22.1082 25.784 22.0217 25.7897 21.9355ZM10.4807 21.9355V20.892H10.0273V21.1452C9.95032 21.046 9.85086 20.9665 9.73715 20.9134C9.62345 20.8603 9.49875 20.835 9.37336 20.8396C9.0843 20.8396 8.80707 20.9546 8.60267 21.1593C8.39828 21.364 8.28345 21.6416 8.28345 21.9311C8.28345 22.2206 8.39828 22.4982 8.60267 22.7029C8.80707 22.9076 9.0843 23.0226 9.37336 23.0226C9.49875 23.0272 9.62345 23.0019 9.73715 22.9488C9.85086 22.8957 9.95032 22.8162 10.0273 22.717V22.9702H10.4807V21.9355ZM8.79353 21.9355C8.80076 21.8126 8.8437 21.6946 8.91708 21.5959C8.99045 21.4972 9.09105 21.4221 9.20648 21.3799C9.32192 21.3377 9.44715 21.3303 9.56676 21.3585C9.68637 21.3867 9.79513 21.4493 9.87966 21.5386C9.96419 21.6279 10.0208 21.7401 10.0425 21.8612C10.0642 21.9823 10.05 22.1071 10.0018 22.2203C9.95353 22.3335 9.87329 22.4301 9.77093 22.4981C9.66856 22.5662 9.54856 22.6028 9.42568 22.6035C9.33901 22.6052 9.25293 22.5888 9.1729 22.5554C9.09287 22.5221 9.02064 22.4724 8.96079 22.4096C8.90094 22.3468 8.85478 22.2722 8.82524 22.1906C8.7957 22.109 8.78341 22.0221 8.78917 21.9355H8.79353Z" fill="#231F20"/>
<path d="M19.4334 4.98828H12.5669V17.3463H19.4334V4.98828Z" fill="#FF5F00"/>
<path d="M13.0028 11.1676C13.0016 9.97724 13.2708 8.80221 13.7901 7.73148C14.3093 6.66075 15.0651 5.72239 16.0001 4.98745C14.8424 4.07631 13.4521 3.50972 11.9881 3.35245C10.5241 3.19518 9.04543 3.45356 7.72111 4.09807C6.3968 4.74259 5.28026 5.74723 4.49911 6.99717C3.71796 8.24711 3.30371 9.69192 3.30371 11.1665C3.30371 12.641 3.71796 14.0859 4.49911 15.3358C5.28026 16.5857 6.3968 17.5904 7.72111 18.2349C9.04543 18.8794 10.5241 19.1378 11.9881 18.9805C13.4521 18.8232 14.8424 18.2567 16.0001 17.3455C15.0654 16.6108 14.3098 15.6728 13.7905 14.6025C13.2713 13.5321 13.0019 12.3575 13.0028 11.1676Z" fill="#EB001B"/>
<path d="M28.6976 11.1685C28.6975 12.6432 28.2832 14.0881 27.5019 15.338C26.7206 16.588 25.6039 17.5927 24.2794 18.2371C22.9549 18.8815 21.4761 19.1397 20.012 18.9822C18.5479 18.8247 17.1576 18.2579 16 17.3464C16.9343 16.6111 17.6897 15.6728 18.2091 14.6024C18.7285 13.532 18.9984 12.3575 18.9984 11.1674C18.9984 9.97731 18.7285 8.80276 18.2091 7.73238C17.6897 6.66199 16.9343 5.72373 16 4.98836C17.1576 4.07693 18.5479 3.51007 20.012 3.35257C21.4761 3.19507 22.9549 3.45329 24.2794 4.09771C25.6039 4.74213 26.7206 5.74676 27.5019 6.99674C28.2832 8.24672 28.6975 9.69163 28.6976 11.1663V11.1685Z" fill="#F79E1B"/>
<path d="M27.9475 16.0371V15.7838H28.0499V15.7314H27.7905V15.7838H27.9017V16.0371H27.9475ZM28.451 16.0371V15.7314H28.3725L28.281 15.9497L28.1894 15.7314H28.1197V16.0371H28.1764V15.8079L28.2614 16.0065H28.3202L28.4052 15.8079V16.0393L28.451 16.0371Z" fill="#F79E1B"/>
</svg>
