<svg width="38" height="13" viewBox="0 0 38 13" fill="none" xmlns="http://www.w3.org/2000/svg">
<path d="M19.628 4.0798C19.6072 5.73311 21.0941 6.65578 22.2142 7.20431C23.3651 7.76719 23.7517 8.12809 23.7473 8.63136C23.7385 9.40173 22.8292 9.74166 21.9781 9.75491C20.4934 9.77808 19.6302 9.35206 18.9439 9.02979L18.4091 11.5451C19.0976 11.864 20.3726 12.1422 21.6948 12.1543C24.7983 12.1543 26.8288 10.6147 26.8398 8.22742C26.8518 5.19783 22.67 5.03007 22.6985 3.67586C22.7084 3.26529 23.0983 2.82713 23.9527 2.71566C24.3755 2.65937 25.5428 2.61633 26.8661 3.22887L27.3856 0.795265C26.6739 0.534799 25.7592 0.285367 24.6203 0.285367C21.6992 0.285367 19.6445 1.84596 19.628 4.0798ZM32.3768 0.495066C31.8101 0.495066 31.3324 0.827272 31.1193 1.33717L26.686 11.9755H29.7873L30.4044 10.2615H34.1942L34.5522 11.9755H37.2856L34.9004 0.495066H32.3768ZM32.8105 3.59639L33.7056 7.90735H31.2544L32.8105 3.59639ZM15.8679 0.495066L13.4234 11.9755H16.3785L18.822 0.495066H15.8679ZM11.4961 0.495066L8.42007 8.30909L7.17584 1.66496C7.02978 0.923292 6.45324 0.495066 5.813 0.495066H0.784456L0.714172 0.828376C1.74646 1.05352 2.91931 1.41664 3.62983 1.80513C4.0647 2.04242 4.1888 2.24991 4.33156 2.81389L6.68825 11.9755H9.81146L14.5995 0.495066H11.4961Z" fill="url(#paint0_linear_3388_6837)"/>
<defs>
<linearGradient id="paint0_linear_3388_6837" x1="17.5276" y1="12.3924" x2="17.8729" y2="0.202927" gradientUnits="userSpaceOnUse">
<stop stop-color="#222357"/>
<stop offset="1" stop-color="#254AA5"/>
</linearGradient>
</defs>
</svg>
